<?xml version="1.0" encoding="utf-8"?>
<!-- Generator: Adobe Illustrator 18.0.0, SVG Export Plug-In . SVG Version: 6.00 Build 0)  -->
<!DOCTYPE svg PUBLIC "-//W3C//DTD SVG 1.1//EN" "http://www.w3.org/Graphics/SVG/1.1/DTD/svg11.dtd">
<svg version="1.1" id="Layer_1" xmlns="http://www.w3.org/2000/svg" xmlns:xlink="http://www.w3.org/1999/xlink" x="0px" y="0px"
	 viewBox="-409.4 0 3409.4 2000" enable-background="new -409.4 0 3409.4 2000" xml:space="preserve">
<g>
	<path fill="#FFFFFF" d="M496.1,1139.5V991H288v148.5h-25.1v-327H288v155.6h208.1V812.5h25.1v327H496.1z"/>
	<path fill="#FFFFFF" d="M811.1,908.9c0,77.3,0,153.8,0,230.6h-22.9v-49.1c-22.5,36-57,52.9-94.5,52.9
		c-64.5,0-117.4-48.8-117.4-119.3s52.9-118.1,117.4-118.1c37.5,0,75.4,17.3,94.5,53.3v-50.6L811.1,908.9L811.1,908.9z M599.3,1024
		c0,57.8,42,96.8,94.5,96.8c128.6,0,128.6-192.7,0-192.7C641.6,928,599.3,966.3,599.3,1024z"/>
	<path fill="#FFFFFF" d="M1067.3,1107.3c-23.3,23.3-53.6,34.5-84,34.5c-64.9,0-118.9-44.6-118.9-117.8
		c0-72.7,51.8-117.7,118.9-117.7c30.4,0,60.8,11.6,84,34.5l-15,14.6c-18.8-18.8-44.2-27.8-69-27.8c-52.1,0-96.4,34.1-96.4,96.4
		s43.9,96.4,96.4,96.4c24.8,0,49.9-9.8,68.6-28.5L1067.3,1107.3z"/>
	<path fill="#FFFFFF" d="M1136.6,812.5v197.3l108.8-100.9h30.4v0.8l-117,108l130.1,120.4v1.5H1260l-123.8-112.9v112.9h-22.5v-327
		L1136.6,812.5L1136.6,812.5z"/>
	<path fill="#EF5451" d="M1534.9,875.5c-23.6-38.3-62.3-43.9-99-44.3c-38.3,0-99,13.9-99,66.4c0,41.6,44.6,51.4,100.1,61.9
		c63,12,128.6,23.3,128.6,93.8c-0.4,73.9-74.6,91.5-129.4,91.5c-51,0-108.8-21-134.3-70.9l22.5-11.3c20.3,39.8,71.6,59.3,111.8,59.3
		s104.3-11.3,104.3-69c0.4-49.1-53.6-59.6-107.3-70.1c-59.6-11.6-121.1-23.6-121.1-84c-1.5-69,70.5-90.8,124.1-90.8
		c46.9,0,87.4,7.5,119.6,55.5L1534.9,875.5z"/>
	<path fill="#EF5451" d="M1672.1,839.1v69.8h78.4V928h-78.4v140.6c0,31.1,6.4,53.3,42.4,53.3c11.3,0,23.6-3.8,35.6-9.4l7.9,18.8
		c-14.6,7.1-28.9,11.6-43.5,11.6c-49.1,0-64.9-28.9-64.9-74.3V928h-49.1v-19.1h49.5v-67.1L1672.1,839.1z"/>
	<path fill="#EF5451" d="M2025.4,908.9c0,77.3,0,153.8,0,230.6h-22.9v-49.1c-22.5,36-57,52.9-94.5,52.9
		c-64.5,0-117.4-48.8-117.4-119.3s52.9-118.1,117.4-118.1c37.5,0,75.4,17.3,94.5,53.3v-50.6L2025.4,908.9L2025.4,908.9z
		 M1813.9,1024c0,57.8,42,96.8,94.5,96.8c128.6,0,128.6-192.7,0-192.7C1855.9,928,1813.9,966.3,1813.9,1024z"/>
	<path fill="#EF5451" d="M2109,908.9l0.8,41.3c14.6-31.1,47.2-43.5,76.5-43.5c17.3-0.4,34.1,4.1,49.5,13.5l-10.1,18.8
		c-12-7.5-25.9-10.9-39.4-10.9c-43.1,0.4-76.1,34.9-76.1,77.3v134.6h-22.9V909.3L2109,908.9L2109,908.9z"/>
	<path fill="#EF5451" d="M2338.1,839.1v69.8h78.4V928h-78.4v140.6c0,31.1,6.4,53.3,42.4,53.3c11.3,0,23.6-3.8,35.6-9.4l7.9,18.8
		c-14.6,7.1-28.9,11.6-43.5,11.6c-49.1,0-64.9-28.9-64.9-74.3V928h-49.1v-19.1h49.1v-67.1L2338.1,839.1z"/>
</g>
<g>
	<g>
		<path fill="#EF5451" d="M544.9,1533.6c-272.6-37.9-482.6-272.3-482.6-555.4c0-309.8,250.9-560.6,560.6-560.6
			c238.5,0,442.1,148.9,523.1,358.9h66.4c-83.6-244.9-316.1-421.1-589.5-421.1C279,355.4,0,634.4,0,978.3
			c0,317.6,237.8,579.8,544.9,618V1533.6z"/>
		<path fill="#EF5451" d="M1146,1180c-72,186.7-241.1,325.1-445.1,353.6v62.6c238.9-29.6,435.7-195,511.9-416.3L1146,1180L1146,1180
			z"/>
	</g>
</g>
<g>
	<path fill="#757576" d="M1336.1,1282.8v126.8c0.4,22.1-5.3,39.4-30.8,39.4c-7.9,0-13.9-1.9-20.6-5.6l3.4-9.8
		c5.3,3,11.6,4.9,17.3,4.9c17.6,0,19.5-13.1,19.5-28.9v-126.8L1336.1,1282.8L1336.1,1282.8z M1321.5,1244.1c0,12,18.4,12,18.4,0
		C1339.9,1231.8,1321.5,1231.8,1321.5,1244.1z"/>
	<path fill="#757576" d="M1460.3,1398.3v-20.6c-9,15.8-24.8,22.5-41.3,22.5c-30.8,0-52.1-18.8-52.1-51v-66.4h11.3v66.4
		c0,26.3,16.1,40.1,41.3,39.8c23.6-0.4,40.1-18.4,40.1-42v-64.1h11.3v115.5L1460.3,1398.3L1460.3,1398.3z"/>
	<path fill="#757576" d="M1672.5,1398.3v-69c0-22.1-15-37.9-36.8-37.9c-21.7,0-37.1,16.1-37.1,38.6v68.3h-11.3V1330
		c0-22.1-15-38.3-37.1-38.3s-36.8,16.1-36.8,38.3v68.3h-11.6v-115.5h10.9l0.4,19.1c7.9-15,22.5-21.4,37.5-21.4
		c17.3,0,36,7.9,42.8,28.5c7.1-18.8,24.8-28.5,42.8-28.5c28.1,0,48.4,19.9,48.4,48.8v69H1672.5L1672.5,1398.3L1672.5,1398.3z"/>
	<path fill="#757576" d="M1713.8,1446.3v-163.5h11.3v27.4c9.4-17.3,27.8-28.9,49.9-28.9c31.1,1.1,56.3,22.1,56.3,59.2
		c0,38.6-26.3,59.6-58.5,59.6c-19.5,0-37.9-9.4-47.6-28.9v74.6L1713.8,1446.3L1713.8,1446.3z M1819.9,1340.5
		c0-32.3-21-48.4-47.3-48.4c-26.6,0-46.9,20.2-46.9,48.8c0,28.5,20.3,48.8,46.9,48.8C1798.9,1389.3,1819.9,1373.1,1819.9,1340.5z"/>
	<path fill="#757576" d="M2002.5,1303.8c-11.6-10.1-22.9-12-36-12c-18-0.4-35.3,6.4-34.9,21.4c0.4,15.4,20.6,18.4,34.9,21
		c20.6,3.8,48.8,7.1,47.6,33.8c-0.8,25.5-27,32.3-47.2,32.3s-40.1-7.9-50.6-22.9l8.3-7.5c9.4,13.9,26.6,19.5,42.4,19.5
		c13.9,0,35.3-3.8,36-22.1c0.4-16.5-18.8-19.9-37.5-22.9c-22.5-3.8-44.6-7.9-44.6-31.1c-0.4-22.5,22.5-32.3,45.8-32.3
		c16.9,0,31.5,4.9,43.1,15.4L2002.5,1303.8z"/>
	<path fill="#757576" d="M2066.3,1248.3v34.9h39.4v9.4h-39.4v70.5c0,15.8,3.4,26.6,21.4,26.6c5.6,0,11.6-1.9,17.6-4.9l3.8,9.4
		c-7.1,3.4-14.6,5.6-21.7,5.6c-24.8,0-32.3-14.6-32.3-37.1v-70.1h-24.4v-9.4h24.4v-33.8L2066.3,1248.3z"/>
	<path fill="#757576" d="M2242.9,1282.8c0,38.6,0,76.9,0,115.5h-11.3v-24.4c-11.3,18-28.5,26.3-47.3,26.3
		c-32.3,0-58.5-24.4-58.5-59.6c0-35.2,26.3-58.9,58.5-58.9c18.8,0,37.5,8.6,47.3,26.6v-25.1L2242.9,1282.8L2242.9,1282.8z
		 M2137.1,1340.5c0,28.9,21,48.4,47.3,48.4c64.1,0,64.1-96.4,0-96.4C2158.1,1292.5,2137.1,1311.6,2137.1,1340.5z"/>
	<path fill="#757576" d="M2284.9,1282.8l0.4,20.6c7.1-15.8,23.6-21.8,38.3-21.8c8.6-0.4,16.9,2.3,24.7,6.8l-5.3,9.4
		c-6-3.8-12.8-5.3-19.5-5.3c-21.4,0.4-37.9,17.3-37.9,38.6v67.1h-11.3v-115.5H2284.9L2284.9,1282.8L2284.9,1282.8L2284.9,1282.8z"/>
	<path fill="#757576" d="M2399.3,1248.3v34.9h39.4v9.4h-39.4v70.5c0,15.8,3.4,26.6,21.4,26.6c5.6,0,11.6-1.9,17.6-4.9l3.8,9.4
		c-7.1,3.4-14.6,5.6-21.8,5.6c-24.7,0-32.2-14.6-32.2-37.1v-70.1h-24.4v-9.4h24.4v-33.8L2399.3,1248.3z"/>
	<path fill="#757576" d="M2627.6,1282.8l-70.1,163.5h-12l21.4-49.5l-46.1-114h12.4l26.6,68.3l13.5,33.4l13.1-33.8l28.9-67.9H2627.6
		L2627.6,1282.8z"/>
	<path fill="#757576" d="M2644.5,1340.5c0-36.8,26.3-60,58.5-60c32.2,0,58.5,23.3,58.5,60s-26.3,58.9-58.5,58.9
		C2670.8,1399.8,2644.5,1377.6,2644.5,1340.5z M2750.6,1340.5c0-30-21.4-49.1-47.3-49.1c-26.3,0-47.2,19.1-47.2,49.1
		s21.4,47.6,47.2,47.6C2729.3,1388.5,2750.6,1370.5,2750.6,1340.5z"/>
	<path fill="#757576" d="M2881.1,1398.3v-20.6c-9,15.8-24.8,22.5-41.3,22.5c-30.8,0-52.1-18.8-52.1-51v-66.4h11.3v66.4
		c0,26.3,16.1,40.1,41.3,39.8c23.6-0.4,40.1-18.4,40.1-42v-64.1h11.3v115.5L2881.1,1398.3L2881.1,1398.3z"/>
	<path fill="#757576" d="M2933.3,1282.8l0.4,20.6c7.1-15.8,23.6-21.8,38.3-21.8c8.6-0.4,16.9,2.3,24.8,6.8l-5.3,9.4
		c-6-3.8-12.8-5.3-19.5-5.3c-21.4,0.4-37.9,17.3-37.9,38.6v67.1h-11.3v-115.5H2933.3L2933.3,1282.8L2933.3,1282.8L2933.3,1282.8z"/>
	<path fill="#757576" d="M1401.8,1502.1c-11.6-10.1-22.9-12-36-12c-18-0.4-35.2,6.4-34.9,21.4c0.4,15.4,20.6,18.4,34.9,21
		c20.6,3.8,48.8,7.1,47.6,33.8c-0.8,25.5-27,32.3-47.3,32.3c-20.3,0-40.1-7.9-50.6-22.9l8.3-7.5c9.4,13.9,26.6,19.5,42.4,19.5
		c13.9,0,35.2-3.8,36-22.1c0.4-16.5-18.8-19.9-37.5-22.9c-22.5-3.8-44.6-7.9-44.6-31.1c-0.4-22.5,22.5-32.3,45.8-32.3
		c16.9,0,31.5,4.9,43.1,15.4L1401.8,1502.1z"/>
	<path fill="#757576" d="M1465.9,1446.3v34.9h39.4v9.4h-39.4v70.1c0,15.8,3.4,26.6,21.4,26.6c5.6,0,11.6-1.9,17.6-4.9l3.8,9.4
		c-7.1,3.4-14.6,5.6-21.8,5.6c-24.4,0-32.3-14.6-32.3-37.1v-70.1h-24.8v-9.4h24.4v-33.4L1465.9,1446.3z"/>
	<path fill="#757576" d="M1642.1,1481.1c0,38.6,0,76.9,0,115.5h-11.3v-24.4c-11.3,18-28.5,26.3-47.3,26.3
		c-32.3,0-58.5-24.4-58.5-59.6s26.3-58.9,58.5-58.9c18.8,0,37.5,8.6,47.3,26.6v-25.1L1642.1,1481.1L1642.1,1481.1z M1536.4,1538.9
		c0,28.9,21,48.4,47.3,48.4c64.1,0,64.1-96.4,0-96.4C1557.4,1490.5,1536.4,1509.6,1536.4,1538.9z"/>
	<path fill="#757576" d="M1684.1,1481.1l0.4,20.6c7.1-15.8,23.6-21.7,38.3-21.7c8.6-0.4,16.9,2.3,24.8,6.7l-5.3,9.4
		c-6-3.8-12.8-5.2-19.5-5.2c-21.4,0.4-37.9,17.3-37.9,38.6v67.1h-11.6v-115.5H1684.1L1684.1,1481.1L1684.1,1481.1z"/>
	<path fill="#757576" d="M1798.5,1446.3v34.9h39v9.4h-39.4v70.1c0,15.8,3.4,26.6,21.4,26.6c5.6,0,11.6-1.9,17.6-4.9l3.8,9.4
		c-7.1,3.4-14.6,5.6-21.8,5.6c-24.4,0-32.3-14.6-32.3-37.1v-70.1h-24.4v-9.4h24.4v-33.4L1798.5,1446.3z"/>
	<path fill="#757576" d="M1957.1,1596.6V1576c-9,15.8-24.7,22.5-41.3,22.5c-30.8,0-52.1-18.8-52.1-51v-66.4h11.3v66.4
		c0,26.3,16.1,40.1,41.3,39.8c23.6-0.4,40.1-18.4,40.1-42v-64.1h11.3v115.5H1957.1L1957.1,1596.6z"/>
	<path fill="#757576" d="M1998.4,1644.6v-163.5h11.3v27.4c9.4-17.3,27.8-28.9,49.9-28.9c31.1,1.1,56.3,22.1,56.3,59.2
		c0,38.6-26.3,59.6-58.5,59.6c-19.5,0-37.9-9.4-47.6-28.9v74.6L1998.4,1644.6L1998.4,1644.6L1998.4,1644.6z M2104.1,1538.9
		c0-32.3-21-48.4-47.3-48.4c-26.6,0-46.9,20.3-46.9,48.8c0,28.5,20.3,48.8,46.9,48.8C2083.1,1587.6,2104.1,1571.1,2104.1,1538.9z"/>
	<path fill="#757576" d="M2302.5,1580.5c-11.6,11.6-26.6,17.3-42,17.3c-32.3,0-59.3-22.5-59.3-58.9c0-36.4,25.9-58.9,59.3-58.9
		c15.4,0,30.4,6,42,17.3l-7.5,7.1c-9.4-9.4-22.1-13.9-34.5-13.9c-26.3,0-48,16.9-48,48s22.1,48,48,48c12.4,0,24.7-4.9,34.1-14.3
		L2302.5,1580.5z"/>
	<path fill="#757576" d="M2436.8,1481.1c0,38.6,0,76.9,0,115.5h-11.3v-24.4c-11.3,18-28.5,26.3-47.3,26.3
		c-32.2,0-58.5-24.4-58.5-59.6s26.3-58.9,58.5-58.9c18.8,0,37.5,8.6,47.3,26.6v-25.1L2436.8,1481.1L2436.8,1481.1z M2331,1538.9
		c0,28.9,21,48.4,47.2,48.4c64.1,0,64.1-96.4,0-96.4C2352,1490.5,2331,1509.6,2331,1538.9z"/>
	<path fill="#757576" d="M2478.8,1481.1l0.4,20.6c7.1-15.8,23.6-21.7,38.3-21.7c8.6-0.4,16.9,2.3,24.7,6.7l-5.3,9.4
		c-6-3.8-12.8-5.2-19.5-5.2c-21.4,0.4-37.9,17.3-37.9,38.6v67.1h-11.6v-115.5H2478.8L2478.8,1481.1z"/>
	<path fill="#757576" d="M2553,1538.9c0-34.5,26.3-59.6,58.5-59.6c32.3,0,61.1,19.9,57,64.9h-103.9c2.3,27,22.9,42.8,46.9,42.8
		c15.4,0,33-6,41.6-17.3l8.3,6.4c-11.3,14.6-31.1,22.1-49.9,22.1C2578.9,1598.1,2553,1575.6,2553,1538.9z M2658.4,1534
		c-0.4-28.5-18.8-44.3-46.9-44.3c-23.6,0-44.2,16.1-46.9,44.3H2658.4z"/>
	<path fill="#757576" d="M2691.8,1538.9c0-34.5,26.3-59.6,58.5-59.6c32.3,0,61.1,19.9,57,64.9h-103.9c2.3,27,22.9,42.8,46.9,42.8
		c15.4,0,33-6,41.6-17.3l8.3,6.4c-11.3,14.6-31.1,22.1-49.9,22.1C2717.6,1598.1,2691.8,1575.6,2691.8,1538.9z M2797.1,1534
		c-0.4-28.5-18.8-44.3-46.9-44.3c-23.6,0-44.2,16.1-46.9,44.3H2797.1z"/>
	<path fill="#757576" d="M2847.8,1481.1l0.4,20.6c7.1-15.8,23.6-21.7,38.3-21.7c8.6-0.4,16.9,2.3,24.8,6.7l-5.3,9.4
		c-6-3.8-12.8-5.2-19.5-5.2c-21.4,0.4-37.9,17.3-37.9,38.6v67.1h-11.6v-115.5H2847.8L2847.8,1481.1z"/>
</g>
</svg>
